<mxfile host="app.diagrams.net" modified="2024-05-21T20:16:40.168Z" agent="Mozilla/5.0 (Windows NT 10.0; Win64; x64) AppleWebKit/537.36 (KHTML, like Gecko) Chrome/124.0.0.0 Safari/537.36" etag="KDbAxAgwH3sc0xttgNrx" version="24.4.4" type="device">
  <diagram name="Page-1" id="iCd83VONYyglG_LTdbsO">
    <mxGraphModel dx="1050" dy="618" grid="1" gridSize="10" guides="1" tooltips="1" connect="1" arrows="1" fold="1" page="1" pageScale="1" pageWidth="1600" pageHeight="900" math="0" shadow="0">
      <root>
        <mxCell id="0" />
        <mxCell id="1" parent="0" />
        <mxCell id="WSc9oac2RAKXXEn_DxE--2" value="&lt;b&gt;&lt;font data-font-src=&quot;https://fonts.googleapis.com/css?family=Roboto&quot; face=&quot;Roboto&quot;&gt;localstorage&lt;/font&gt;&lt;/b&gt;" style="rounded=1;whiteSpace=wrap;html=1;sketch=1;hachureGap=4;jiggle=2;curveFitting=1;fontFamily=Architects Daughter;fontSource=https%3A%2F%2Ffonts.googleapis.com%2Fcss%3Ffamily%3DArchitects%2BDaughter;horizontal=1;verticalAlign=bottom;labelPosition=center;verticalLabelPosition=top;align=center;fillColor=#f5f5f5;fontColor=#333333;strokeColor=#666666;movable=1;resizable=1;rotatable=1;deletable=1;editable=1;locked=0;connectable=1;" parent="1" vertex="1">
          <mxGeometry x="30" y="20" width="1020" height="520" as="geometry" />
        </mxCell>
        <mxCell id="WSc9oac2RAKXXEn_DxE--3" value="" style="labelPosition=right;align=left;strokeWidth=1;shape=mxgraph.mockup.markup.curlyBrace;html=1;shadow=0;dashed=0;strokeColor=#999999;direction=north;rounded=1;sketch=1;hachureGap=4;jiggle=2;curveFitting=1;verticalAlign=middle;fontFamily=Architects Daughter;fontSource=https%3A%2F%2Ffonts.googleapis.com%2Fcss%3Ffamily%3DArchitects%2BDaughter;fontSize=12;fontColor=default;fillColor=default;" parent="1" vertex="1">
          <mxGeometry x="70" y="60" width="20" height="450" as="geometry" />
        </mxCell>
        <mxCell id="WSc9oac2RAKXXEn_DxE--4" value="" style="labelPosition=right;align=left;strokeWidth=1;shape=mxgraph.mockup.markup.curlyBrace;html=1;shadow=0;dashed=0;strokeColor=#999999;direction=north;rounded=1;sketch=1;hachureGap=4;jiggle=2;curveFitting=1;verticalAlign=middle;fontFamily=Architects Daughter;fontSource=https%3A%2F%2Ffonts.googleapis.com%2Fcss%3Ffamily%3DArchitects%2BDaughter;fontSize=12;fontColor=default;fillColor=default;rotation=-180;" parent="1" vertex="1">
          <mxGeometry x="1010" y="65" width="20" height="445" as="geometry" />
        </mxCell>
        <mxCell id="WSc9oac2RAKXXEn_DxE--5" value="&lt;b&gt;&lt;font face=&quot;Roboto&quot; data-font-src=&quot;https://fonts.googleapis.com/css?family=Roboto&quot;&gt;&quot;projects&quot;:&lt;/font&gt;&lt;/b&gt;" style="rounded=1;whiteSpace=wrap;html=1;sketch=1;hachureGap=4;jiggle=2;curveFitting=1;strokeColor=#9673a6;align=left;verticalAlign=bottom;fontFamily=Architects Daughter;fontSource=https%3A%2F%2Ffonts.googleapis.com%2Fcss%3Ffamily%3DArchitects%2BDaughter;fontSize=12;fillColor=#e1d5e7;arcSize=7;labelPosition=center;verticalLabelPosition=top;" parent="1" vertex="1">
          <mxGeometry x="120" y="80" width="440" height="400" as="geometry" />
        </mxCell>
        <mxCell id="WSc9oac2RAKXXEn_DxE--6" value="&lt;b&gt;&lt;font face=&quot;Roboto&quot;&gt;&quot;tasks&quot;:&lt;/font&gt;&lt;/b&gt;" style="rounded=1;whiteSpace=wrap;html=1;sketch=1;hachureGap=4;jiggle=2;curveFitting=1;strokeColor=#d79b00;align=left;verticalAlign=bottom;fontFamily=Architects Daughter;fontSource=https%3A%2F%2Ffonts.googleapis.com%2Fcss%3Ffamily%3DArchitects%2BDaughter;fontSize=12;fillColor=#ffe6cc;arcSize=7;labelPosition=center;verticalLabelPosition=top;" parent="1" vertex="1">
          <mxGeometry x="610" y="80" width="380" height="400" as="geometry" />
        </mxCell>
        <mxCell id="WSc9oac2RAKXXEn_DxE--12" value="" style="labelPosition=right;align=left;strokeWidth=1;shape=mxgraph.mockup.markup.curlyBrace;html=1;shadow=0;dashed=0;strokeColor=#999999;direction=north;rounded=1;sketch=1;hachureGap=4;jiggle=2;curveFitting=1;verticalAlign=middle;fontFamily=Architects Daughter;fontSource=https%3A%2F%2Ffonts.googleapis.com%2Fcss%3Ffamily%3DArchitects%2BDaughter;fontSize=12;fontColor=default;fillColor=default;" parent="1" vertex="1">
          <mxGeometry x="240" y="100" width="20" height="100" as="geometry" />
        </mxCell>
        <mxCell id="WSc9oac2RAKXXEn_DxE--15" value="&lt;ul&gt;&lt;li&gt;&lt;b&gt;&quot;id&quot;: &lt;/b&gt;&lt;i&gt;P&lt;/i&gt;&lt;i style=&quot;text-align: center;&quot;&gt;17043423&lt;/i&gt;&lt;/li&gt;&lt;li&gt;&lt;b&gt;&quot;name&quot;:&lt;/b&gt; ...&lt;/li&gt;&lt;li&gt;&lt;b&gt;&quot;taskIds&quot;:&lt;/b&gt; [&lt;i&gt;T123456, T789098&lt;/i&gt;]&lt;/li&gt;&lt;/ul&gt;" style="text;html=1;align=left;verticalAlign=top;whiteSpace=wrap;rounded=0;fontFamily=Roboto;fontSource=https%3A%2F%2Ffonts.googleapis.com%2Fcss%3Ffamily%3DRoboto;fontSize=12;fontColor=default;horizontal=1;" parent="1" vertex="1">
          <mxGeometry x="230" y="120" width="270" height="60" as="geometry" />
        </mxCell>
        <mxCell id="WSc9oac2RAKXXEn_DxE--18" value="" style="labelPosition=right;align=left;strokeWidth=1;shape=mxgraph.mockup.markup.curlyBrace;html=1;shadow=0;dashed=0;strokeColor=#999999;direction=north;rounded=1;sketch=1;hachureGap=4;jiggle=2;curveFitting=1;verticalAlign=middle;fontFamily=Architects Daughter;fontSource=https%3A%2F%2Ffonts.googleapis.com%2Fcss%3Ffamily%3DArchitects%2BDaughter;fontSize=12;fontColor=default;fillColor=default;" parent="1" vertex="1">
          <mxGeometry x="710" y="95" width="20" height="100" as="geometry" />
        </mxCell>
        <mxCell id="WSc9oac2RAKXXEn_DxE--19" value="&lt;ul&gt;&lt;li&gt;&lt;b&gt;&quot;name&quot;:&lt;/b&gt; ...&lt;/li&gt;&lt;li&gt;&lt;b&gt;&quot;id&quot;: &lt;/b&gt;&lt;i&gt;T123456&lt;/i&gt;&lt;/li&gt;&lt;li&gt;&lt;b&gt;&quot;description&quot;:&lt;/b&gt;&amp;nbsp;...&lt;/li&gt;&lt;li&gt;&lt;b&gt;&quot;dueDate&quot;:&lt;/b&gt;&amp;nbsp;...&lt;/li&gt;&lt;li&gt;&lt;b&gt;&quot;urgency&quot;: &lt;/b&gt;...&lt;/li&gt;&lt;li&gt;&lt;b&gt;&quot;completed&quot;: &lt;/b&gt;...&lt;/li&gt;&lt;li&gt;&lt;b&gt;&quot;projectId&quot;: &lt;/b&gt;&lt;i&gt;P17043423&lt;/i&gt;&lt;/li&gt;&lt;/ul&gt;" style="text;html=1;align=left;verticalAlign=top;whiteSpace=wrap;rounded=0;fontFamily=Roboto;fontSource=https%3A%2F%2Ffonts.googleapis.com%2Fcss%3Ffamily%3DRoboto;fontSize=12;fontColor=default;horizontal=1;" parent="1" vertex="1">
          <mxGeometry x="729.83" y="80" width="170" height="115" as="geometry" />
        </mxCell>
        <mxCell id="WSc9oac2RAKXXEn_DxE--21" style="edgeStyle=orthogonalEdgeStyle;rounded=0;sketch=1;hachureGap=4;jiggle=2;curveFitting=1;orthogonalLoop=1;jettySize=auto;html=1;fontFamily=Roboto;fontSource=https%3A%2F%2Ffonts.googleapis.com%2Fcss%3Ffamily%3DRoboto;fontSize=12;fontColor=default;exitX=0.5;exitY=0;exitDx=0;exitDy=0;curved=1;fillColor=#fff2cc;strokeColor=#d6b656;" parent="1" source="WSc9oac2RAKXXEn_DxE--20" target="WSc9oac2RAKXXEn_DxE--19" edge="1">
          <mxGeometry relative="1" as="geometry">
            <mxPoint x="910" y="145" as="targetPoint" />
          </mxGeometry>
        </mxCell>
        <mxCell id="WSc9oac2RAKXXEn_DxE--20" value="" style="rounded=1;whiteSpace=wrap;html=1;align=center;verticalAlign=middle;fontFamily=Roboto;fontSource=https%3A%2F%2Ffonts.googleapis.com%2Fcss%3Ffamily%3DRoboto;fontSize=12;fillColor=#fff2cc;strokeColor=#d6b656;opacity=50;" parent="1" vertex="1">
          <mxGeometry x="327" y="165" width="50" height="20" as="geometry" />
        </mxCell>
        <mxCell id="WSc9oac2RAKXXEn_DxE--22" value="" style="labelPosition=right;align=left;strokeWidth=1;shape=mxgraph.mockup.markup.curlyBrace;html=1;shadow=0;dashed=0;strokeColor=#999999;direction=north;rounded=1;sketch=1;hachureGap=4;jiggle=2;curveFitting=1;verticalAlign=middle;fontFamily=Architects Daughter;fontSource=https%3A%2F%2Ffonts.googleapis.com%2Fcss%3Ffamily%3DArchitects%2BDaughter;fontSize=12;fontColor=default;fillColor=default;rotation=-179;" parent="1" vertex="1">
          <mxGeometry x="440" y="100" width="20" height="100" as="geometry" />
        </mxCell>
        <mxCell id="WSc9oac2RAKXXEn_DxE--23" value="" style="labelPosition=right;align=left;strokeWidth=1;shape=mxgraph.mockup.markup.curlyBrace;html=1;shadow=0;dashed=0;strokeColor=#999999;direction=north;rounded=1;sketch=1;hachureGap=4;jiggle=2;curveFitting=1;verticalAlign=middle;fontFamily=Architects Daughter;fontSource=https%3A%2F%2Ffonts.googleapis.com%2Fcss%3Ffamily%3DArchitects%2BDaughter;fontSize=12;fontColor=default;fillColor=default;rotation=-179;" parent="1" vertex="1">
          <mxGeometry x="899.83" y="95" width="20" height="105" as="geometry" />
        </mxCell>
        <mxCell id="WSc9oac2RAKXXEn_DxE--26" value="" style="labelPosition=right;align=left;strokeWidth=1;shape=mxgraph.mockup.markup.curlyBrace;html=1;shadow=0;dashed=0;strokeColor=#999999;direction=north;rounded=1;sketch=1;hachureGap=4;jiggle=2;curveFitting=1;verticalAlign=middle;fontFamily=Architects Daughter;fontSource=https%3A%2F%2Ffonts.googleapis.com%2Fcss%3Ffamily%3DArchitects%2BDaughter;fontSize=12;fontColor=default;fillColor=default;" parent="1" vertex="1">
          <mxGeometry x="710" y="220" width="20" height="110" as="geometry" />
        </mxCell>
        <mxCell id="WSc9oac2RAKXXEn_DxE--27" value="&lt;ul&gt;&lt;li&gt;&lt;b style=&quot;background-color: initial;&quot;&gt;&quot;name&quot;:&lt;/b&gt;&lt;span style=&quot;background-color: initial;&quot;&gt; ...&lt;/span&gt;&lt;br&gt;&lt;/li&gt;&lt;li&gt;&lt;span style=&quot;background-color: initial;&quot;&gt;&lt;b&gt;&quot;id&quot;: &lt;/b&gt;...&lt;/span&gt;&lt;/li&gt;&lt;li&gt;&lt;b&gt;&quot;description&quot;:&lt;/b&gt;&amp;nbsp;...&lt;/li&gt;&lt;li&gt;&lt;b&gt;&quot;dueDate&quot;:&lt;/b&gt;&amp;nbsp;...&lt;/li&gt;&lt;li&gt;&lt;b&gt;&quot;urgency&quot;: &lt;/b&gt;...&lt;/li&gt;&lt;li&gt;&lt;b&gt;&quot;completed&quot;: &lt;/b&gt;...&lt;/li&gt;&lt;li&gt;&lt;b&gt;&quot;projectId&quot;:&amp;nbsp;&lt;/b&gt;&lt;/li&gt;&lt;/ul&gt;" style="text;html=1;align=left;verticalAlign=top;whiteSpace=wrap;rounded=0;fontFamily=Roboto;fontSource=https%3A%2F%2Ffonts.googleapis.com%2Fcss%3Ffamily%3DRoboto;fontSize=12;fontColor=default;horizontal=1;" parent="1" vertex="1">
          <mxGeometry x="740" y="207.5" width="150" height="125" as="geometry" />
        </mxCell>
        <mxCell id="WSc9oac2RAKXXEn_DxE--28" value="" style="labelPosition=right;align=left;strokeWidth=1;shape=mxgraph.mockup.markup.curlyBrace;html=1;shadow=0;dashed=0;strokeColor=#999999;direction=north;rounded=1;sketch=1;hachureGap=4;jiggle=2;curveFitting=1;verticalAlign=middle;fontFamily=Architects Daughter;fontSource=https%3A%2F%2Ffonts.googleapis.com%2Fcss%3Ffamily%3DArchitects%2BDaughter;fontSize=12;fontColor=default;fillColor=default;rotation=-179;" parent="1" vertex="1">
          <mxGeometry x="879.83" y="220" width="20" height="120" as="geometry" />
        </mxCell>
        <mxCell id="WSc9oac2RAKXXEn_DxE--31" style="edgeStyle=orthogonalEdgeStyle;curved=1;rounded=0;sketch=1;hachureGap=4;jiggle=2;curveFitting=1;orthogonalLoop=1;jettySize=auto;html=1;entryX=0;entryY=0.5;entryDx=0;entryDy=0;strokeColor=#d6b656;align=center;verticalAlign=middle;fontFamily=Roboto;fontSource=https%3A%2F%2Ffonts.googleapis.com%2Fcss%3Ffamily%3DRoboto;fontSize=12;fontColor=default;labelBackgroundColor=default;endArrow=classic;fillColor=#fff2cc;" parent="1" source="WSc9oac2RAKXXEn_DxE--29" target="WSc9oac2RAKXXEn_DxE--27" edge="1">
          <mxGeometry relative="1" as="geometry">
            <mxPoint x="910" y="270" as="targetPoint" />
          </mxGeometry>
        </mxCell>
        <mxCell id="WSc9oac2RAKXXEn_DxE--29" value="" style="rounded=1;whiteSpace=wrap;html=1;align=center;verticalAlign=middle;fontFamily=Roboto;fontSource=https%3A%2F%2Ffonts.googleapis.com%2Fcss%3Ffamily%3DRoboto;fontSize=12;fillColor=#fff2cc;strokeColor=#d6b656;opacity=50;" parent="1" vertex="1">
          <mxGeometry x="382" y="165" width="50" height="20" as="geometry" />
        </mxCell>
        <mxCell id="WSc9oac2RAKXXEn_DxE--33" value="" style="shape=image;html=1;verticalAlign=top;verticalLabelPosition=bottom;labelBackgroundColor=#ffffff;imageAspect=0;aspect=fixed;image=https://cdn0.iconfinder.com/data/icons/phosphor-duotone-vol-1/256/brackets-square-duotone-128.png;rounded=0;align=center;fontFamily=Roboto;fontSource=https%3A%2F%2Ffonts.googleapis.com%2Fcss%3Ffamily%3DRoboto;fontSize=12;fontColor=default;fillColor=none;gradientColor=none;clipPath=inset(10.94% 54.69% 10.94% 10.94%);" parent="1" vertex="1">
          <mxGeometry x="173.68" y="87.5" width="56.32" height="128" as="geometry" />
        </mxCell>
        <mxCell id="WSc9oac2RAKXXEn_DxE--36" value="" style="shape=image;html=1;verticalAlign=top;verticalLabelPosition=bottom;labelBackgroundColor=#ffffff;imageAspect=0;aspect=fixed;image=https://cdn0.iconfinder.com/data/icons/phosphor-duotone-vol-1/256/brackets-square-duotone-128.png;rounded=0;align=center;fontFamily=Roboto;fontSource=https%3A%2F%2Ffonts.googleapis.com%2Fcss%3Ffamily%3DRoboto;fontSize=12;fontColor=default;fillColor=none;gradientColor=none;clipPath=inset(10.94% 54.69% 10.94% 10.94%);rotation=-180;" parent="1" vertex="1">
          <mxGeometry x="470" y="270" width="56.32" height="128" as="geometry" />
        </mxCell>
        <mxCell id="WSc9oac2RAKXXEn_DxE--41" value="" style="labelPosition=right;align=left;strokeWidth=1;shape=mxgraph.mockup.markup.curlyBrace;html=1;shadow=0;dashed=0;strokeColor=#999999;direction=north;rounded=1;sketch=1;hachureGap=4;jiggle=2;curveFitting=1;verticalAlign=middle;fontFamily=Architects Daughter;fontSource=https%3A%2F%2Ffonts.googleapis.com%2Fcss%3Ffamily%3DArchitects%2BDaughter;fontSize=12;fontColor=default;fillColor=default;" parent="1" vertex="1">
          <mxGeometry x="240" y="215.5" width="20" height="100" as="geometry" />
        </mxCell>
        <mxCell id="WSc9oac2RAKXXEn_DxE--43" value="" style="labelPosition=right;align=left;strokeWidth=1;shape=mxgraph.mockup.markup.curlyBrace;html=1;shadow=0;dashed=0;strokeColor=#999999;direction=north;rounded=1;sketch=1;hachureGap=4;jiggle=2;curveFitting=1;verticalAlign=middle;fontFamily=Architects Daughter;fontSource=https%3A%2F%2Ffonts.googleapis.com%2Fcss%3Ffamily%3DArchitects%2BDaughter;fontSize=12;fontColor=default;fillColor=default;rotation=-179;" parent="1" vertex="1">
          <mxGeometry x="440" y="215.5" width="20" height="100" as="geometry" />
        </mxCell>
        <mxCell id="WSc9oac2RAKXXEn_DxE--45" value="&lt;ul&gt;&lt;li&gt;&lt;b&gt;&quot;id&quot;: &lt;/b&gt;&lt;i style=&quot;&quot;&gt;inbox&lt;/i&gt;&lt;/li&gt;&lt;li&gt;&lt;b&gt;&quot;name&quot;:&lt;/b&gt;&amp;nbsp;Inbox&lt;/li&gt;&lt;li&gt;&lt;b&gt;&quot;taskIds&quot;:&lt;/b&gt;&amp;nbsp;[ ... ]&lt;/li&gt;&lt;/ul&gt;" style="text;html=1;align=left;verticalAlign=top;whiteSpace=wrap;rounded=0;fontFamily=Roboto;fontSource=https%3A%2F%2Ffonts.googleapis.com%2Fcss%3Ffamily%3DRoboto;fontSize=12;fontColor=default;horizontal=1;" parent="1" vertex="1">
          <mxGeometry x="230" y="225" width="210" height="60" as="geometry" />
        </mxCell>
        <mxCell id="WSc9oac2RAKXXEn_DxE--46" value="" style="shape=image;html=1;verticalAlign=top;verticalLabelPosition=bottom;labelBackgroundColor=#ffffff;imageAspect=0;aspect=fixed;image=https://cdn0.iconfinder.com/data/icons/phosphor-duotone-vol-1/256/brackets-square-duotone-128.png;rounded=0;align=center;fontFamily=Roboto;fontSource=https%3A%2F%2Ffonts.googleapis.com%2Fcss%3Ffamily%3DRoboto;fontSize=12;fontColor=default;fillColor=none;gradientColor=none;clipPath=inset(10.94% 54.69% 10.94% 10.94%);" parent="1" vertex="1">
          <mxGeometry x="620" y="87.5" width="56.32" height="128" as="geometry" />
        </mxCell>
        <mxCell id="WSc9oac2RAKXXEn_DxE--47" value="" style="shape=image;html=1;verticalAlign=top;verticalLabelPosition=bottom;labelBackgroundColor=#ffffff;imageAspect=0;aspect=fixed;image=https://cdn0.iconfinder.com/data/icons/phosphor-duotone-vol-1/256/brackets-square-duotone-128.png;rounded=0;align=center;fontFamily=Roboto;fontSource=https%3A%2F%2Ffonts.googleapis.com%2Fcss%3Ffamily%3DRoboto;fontSize=12;fontColor=default;fillColor=none;gradientColor=none;clipPath=inset(10.94% 54.69% 10.94% 10.94%);rotation=-180;" parent="1" vertex="1">
          <mxGeometry x="910.0000000000002" y="270" width="56.32" height="128" as="geometry" />
        </mxCell>
        <mxCell id="WSc9oac2RAKXXEn_DxE--49" style="edgeStyle=orthogonalEdgeStyle;curved=1;rounded=0;sketch=1;hachureGap=4;jiggle=2;curveFitting=1;orthogonalLoop=1;jettySize=auto;html=1;exitX=0.5;exitY=0;exitDx=0;exitDy=0;strokeColor=#d6b656;align=center;verticalAlign=middle;fontFamily=Roboto;fontSource=https%3A%2F%2Ffonts.googleapis.com%2Fcss%3Ffamily%3DRoboto;fontSize=12;fontColor=default;labelBackgroundColor=default;endArrow=classic;fillColor=#fff2cc;entryX=0.499;entryY=0.302;entryDx=0;entryDy=0;entryPerimeter=0;" parent="1" source="WSc9oac2RAKXXEn_DxE--48" target="WSc9oac2RAKXXEn_DxE--22" edge="1">
          <mxGeometry relative="1" as="geometry" />
        </mxCell>
        <mxCell id="WSc9oac2RAKXXEn_DxE--48" value="" style="rounded=1;whiteSpace=wrap;html=1;align=center;verticalAlign=middle;fontFamily=Roboto;fontSource=https%3A%2F%2Ffonts.googleapis.com%2Fcss%3Ffamily%3DRoboto;fontSize=12;fillColor=#fff2cc;strokeColor=#d6b656;opacity=50;" parent="1" vertex="1">
          <mxGeometry x="828" y="180" width="70" height="20" as="geometry" />
        </mxCell>
      </root>
    </mxGraphModel>
  </diagram>
</mxfile>
